<?xml version="1.0" encoding="utf-8"?>
<!-- Generator: Adobe Illustrator 16.0.3, SVG Export Plug-In . SVG Version: 6.00 Build 0)  -->
<!DOCTYPE svg PUBLIC "-//W3C//DTD SVG 1.1//EN" "http://www.w3.org/Graphics/SVG/1.1/DTD/svg11.dtd">
<svg version="1.1" id="Capa_1" xmlns="http://www.w3.org/2000/svg" xmlns:xlink="http://www.w3.org/1999/xlink" x="0px" y="0px"
	 width="500px" height="311.03px" viewBox="0 0 500 311.03" enable-background="new 0 0 500 311.03" xml:space="preserve">
<g>
	<g>
		<g>
			<ellipse fill="#585857" cx="252.26" cy="160.939" rx="247.74" ry="150.091"/>
			<ellipse fill="#FDEB1B" cx="247.74" cy="150.09" rx="247.741" ry="150.09"/>
			<ellipse fill="#E53217" cx="251.355" cy="148.282" rx="219.711" ry="127.034"/>
		</g>
		<g>
			<path fill="#585857" d="M99.827,138.55c0-6.479-0.576-9.07-7.63-9.07c-1.872,0-3.6,0.288-5.327,0.288
				c-3.023,0-5.758-1.583-5.758-4.75c0-9.934,32.393-17.852,53.698-17.852c4.463,0,11.949,0.288,11.949,6.479
				c0,7.199-10.51,2.016-10.797,15.548c-0.145,7.631-0.288,12.525-0.288,17.276c0,6.334,0.144,18.571,1.295,24.618
				c2.592,12.813,18.858,2.734,18.858,12.956c0,5.039-4.462,6.335-8.638,7.343c-7.486,1.584-21.306,2.591-29.081,2.591
				c-5.039,0-40.167-0.72-40.167-10.652c0-3.455,3.167-5.759,6.479-5.759c2.447,0,5.039,0.863,7.486,0.863
				c5.471,0,7.918-3.743,7.918-20.299v-19.58H99.827z"/>
			<path fill="#585857" d="M237.892,139.701c0,1.296,2.447,2.735,3.456,3.455c6.334,4.318,10.509,11.949,10.509,19.724
				c0,11.661-10.366,31.096-41.031,31.096c-17.563,0-46.5-6.766-46.5-29.08c0-13.389,12.093-16.268,12.093-19.291
				c0-2.448-9.79-7.199-9.79-19.58c0-17.852,19.436-27.642,39.733-27.642c14.397,0,44.055,4.176,44.055,23.467
				C250.417,134.087,237.892,136.822,237.892,139.701z M217.017,171.66c0-6.046-5.471-8.062-9.934-10.364
				c-3.312-1.729-10.798-5.327-14.396-5.327c-2.879,0-3.743,3.311-3.743,5.759c0,9.357,8.781,17.275,17.995,17.275
				C211.69,179.004,217.017,177.276,217.017,171.66z M202.621,117.675c0,5.326,10.365,12.237,15.116,12.237
				c3.455,0,5.039-5.615,5.039-8.351c0-6.766-6.767-9.501-12.526-9.501C206.795,112.061,202.621,113.932,202.621,117.675z"/>
			<path fill="#585857" d="M272.732,165.759c-3.455,0-6.047-8.638-6.047-11.373c0-5.903,19.293-5.183,19.293-18.716
				c0-5.183-5.615-9.646-11.229-9.646c-7.057,0-11.949,5.039-14.541,5.039c-3.023,0-5.184-5.327-5.184-8.063
				c0-7.629,20.012-15.836,37-15.836c11.516,0,35.127,3.599,35.127,18.858c0,12.381-10.797,14.974-10.797,18.284
				c0,5.183,24.186,0.432,24.186,25.482c0,18.282-16.844,37.432-54.852,37.432c-7.199,0-32.535-1.44-32.535-11.806
				c0-4.607,3.6-7.774,8.063-7.774c4.029,0,8.779,2.592,17.852,2.592c9.068,0,19.293-4.895,19.293-13.819
				c0-8.352-7.775-12.095-15.262-12.095C277.771,164.319,273.887,165.759,272.732,165.759z"/>
			<path fill="#585857" d="M388.053,107.165c24.328,0,43.045,20.442,43.045,44.342c0,28.36-23.033,42.469-41.895,42.469
				c-24.904,0-41.316-20.298-41.316-44.197C347.887,125.448,362.715,107.165,388.053,107.165z M387.045,128.615
				c-6.049,0-6.91,6.91-6.91,11.519c0,6.479,2.592,32.392,11.949,32.392c5.758,0,6.766-7.485,6.766-11.805
				C398.85,153.81,396.547,128.615,387.045,128.615z"/>
		</g>
		<g>
			<path fill="#FDEB1B" d="M95.306,132.221c0-6.479-0.576-9.07-7.629-9.07c-1.872,0-3.6,0.288-5.327,0.288
				c-3.023,0-5.759-1.583-5.759-4.75c0-9.934,32.393-17.852,53.699-17.852c4.464,0,11.949,0.288,11.949,6.479
				c0,7.199-10.509,2.017-10.797,15.548c-0.144,7.631-0.288,12.525-0.288,17.276c0,6.334,0.145,18.571,1.295,24.618
				c2.592,12.813,18.859,2.734,18.859,12.956c0,5.04-4.462,6.335-8.638,7.343c-7.486,1.584-21.306,2.591-29.082,2.591
				c-5.039,0-40.166-0.72-40.166-10.651c0-3.455,3.167-5.76,6.478-5.76c2.448,0,5.039,0.863,7.486,0.863
				c5.471,0,7.918-3.743,7.918-20.299L95.306,132.221L95.306,132.221z"/>
			<path fill="#FDEB1B" d="M233.371,133.373c0,1.295,2.448,2.734,3.456,3.455c6.334,4.317,10.51,11.948,10.51,19.723
				c0,11.661-10.365,31.096-41.03,31.096c-17.564,0-46.5-6.766-46.5-29.08c0-13.389,12.092-16.268,12.092-19.292
				c0-2.446-9.79-7.198-9.79-19.58c0-17.852,19.437-27.642,39.734-27.642c14.396,0,44.054,4.176,44.054,23.467
				C245.896,127.758,233.371,130.494,233.371,133.373z M212.497,165.332c0-6.047-5.471-8.063-9.935-10.365
				c-3.311-1.729-10.797-5.327-14.396-5.327c-2.879,0-3.742,3.311-3.742,5.759c0,9.358,8.78,17.276,17.995,17.276
				C207.169,172.675,212.497,170.947,212.497,165.332z M198.1,111.346c0,5.326,10.365,12.237,15.116,12.237
				c3.455,0,5.039-5.615,5.039-8.351c0-6.766-6.768-9.501-12.525-9.501C202.274,105.731,198.1,107.602,198.1,111.346z"/>
			<path fill="#FDEB1B" d="M268.213,159.43c-3.455,0-6.047-8.638-6.047-11.373c0-5.903,19.293-5.183,19.293-18.716
				c0-5.183-5.615-9.646-11.23-9.646c-7.055,0-11.949,5.039-14.539,5.039c-3.023,0-5.184-5.327-5.184-8.063
				c0-7.629,20.012-15.836,37-15.836c11.516,0,35.125,3.599,35.125,18.858c0,12.381-10.797,14.974-10.797,18.284
				c0,5.183,24.188,0.433,24.188,25.482c0,18.282-16.844,37.432-54.852,37.432c-7.199,0-32.536-1.44-32.536-11.806
				c0-4.607,3.598-7.774,8.063-7.774c4.029,0,8.779,2.591,17.852,2.591c9.068,0,19.293-4.894,19.293-13.818
				c0-8.352-7.775-12.094-15.264-12.094C273.252,157.99,269.365,159.43,268.213,159.43z"/>
			<path fill="#FDEB1B" d="M383.531,100.836c24.328,0,43.045,20.442,43.045,44.342c0,28.361-23.033,42.469-41.895,42.469
				c-24.904,0-41.316-20.298-41.316-44.197C343.365,119.119,358.193,100.836,383.531,100.836z M382.523,122.287
				c-6.047,0-6.91,6.909-6.91,11.518c0,6.479,2.592,32.392,11.949,32.392c5.758,0,6.766-7.485,6.766-11.805
				C394.328,147.48,392.025,122.287,382.523,122.287z"/>
		</g>
	</g>
</g>
</svg>
